<svg viewBox="0 0 322 178" fill="none" xmlns="http://www.w3.org/2000/svg">
<path fill-rule="evenodd" clip-rule="evenodd" d="M39.472 92.536C55.2 76.792 64.024 77.73 76.628 85.54C91.302 94.632 95.6 82.62 88.734 71.122C85.596 65.99 83.044 60.732 80.72 55.194C80.036 52.762 80.452 51.12 80.558 49.084C81.504 46.488 79.642 46.06 79.184 47.534C78.522 48.956 78.016 51.694 77.986 53.266C77.812 62.15 82.174 69.49 84.74 72.562C92.794 82.206 90.646 88.602 74.77 80.602C64.33 72.06 52.04 75.23 37.94 88.658L36.586 85.55C53.618 70.794 70.292 55.606 85.704 35.9C91.504 28.484 91.012 21.26 77.712 14.524C78.868 3.04 66.07 -4.74 53.866 4.062C50.844 5.722 52.014 7.378 55.796 5.67C78.064 -4.392 75.678 29.562 59.976 18.856C58.274 18.178 56.818 17.624 57.082 20.142C60.38 24.35 65.182 25.216 71.43 22.866C68.368 26.944 65.408 30.814 61.906 32.362C61.068 32.732 60.184 32.518 59.702 31.87C56.26 27.254 54.236 22.808 54.188 17.246C54.144 12.13 53.012 10.572 45.504 9.85C30.43 10.072 16.724 16.364 13.024 28.502L14.776 27.878C17.938 22.476 23.552 17.972 34.014 15.244C46.988 11.45 50.542 17.154 52.364 26.624C54.454 37.478 65.87 37.574 70.192 30.318C71.914 27.426 73.542 24.48 75.216 21.56C75.386 20.16 77.032 20.35 79.092 20.986C84.716 23.232 83.678 29.09 78.948 36.348C63.7 54.62 49.254 69.178 35 83.14C27.184 90.796 13.494 81.792 33.838 71.494C40.274 68.236 41.77 62.122 39.612 58.742C39.062 56.1 35.85 55.728 36.598 58.598C36.58 65.642 34.146 68.54 29.97 69.888L23.704 55.138L21.236 56.588L27.214 71.614C13.728 80.3 21.496 93.25 33.728 87.358L35.162 90.756L14.776 112.724C5.81799 122.376 1.87199 115.484 7.16799 97.794C9.81999 88.932 12.454 80.044 17.074 71.666L14.634 69.656C7.358 83.582 2.86599 98.202 0.277993 113.3C-1.72801 125.988 11.9 122.386 14.922 118.604L36.6 94.924L56.42 144.358C59.018 154.314 52.466 163.748 46.396 171.352L52.72 177.2C54.18 179.24 59.29 174.784 58.646 174.45C62.874 165.596 64.838 152.294 62.456 147.152L39.472 92.536ZM23.654 25.068C17.386 31.264 12.512 39.732 9.78799 52.182C7.62599 62.066 12.386 65.556 17.464 67.534C18.644 67.994 19.644 67.206 20.188 66.42C20.774 65.574 21.044 64.544 19.94 64.192C15.336 62.722 12.128 58.836 14.244 49.336C16.074 41.124 19.692 33.156 23.654 25.068ZM26.796 161.484C31.348 161.484 35.06 163.634 35.06 166.268C35.06 168.902 31.348 171.052 26.796 171.052C22.244 171.052 18.532 168.902 18.532 166.268C18.534 163.634 22.246 161.484 26.796 161.484Z" fill="#B56576"/>
<circle cx="26.5" cy="162.5" r="9.5" fill="#B56576"/>
<path d="M109.721 126.875C109.721 127.681 109.596 128.505 109.345 129.346C109.095 130.188 108.719 131.02 108.217 131.844C107.734 132.649 107.107 133.419 106.337 134.153C105.585 134.869 104.69 135.496 103.652 136.033C102.631 136.57 101.477 137 100.188 137.322C98.8984 137.645 97.4661 137.806 95.8906 137.806C95.2282 137.806 94.4583 137.743 93.5811 137.618C92.7038 137.492 91.8086 137.313 90.8955 137.081C89.9824 136.866 89.0872 136.597 88.21 136.275C87.3506 135.953 86.6076 135.586 85.981 135.174C85.8914 135.138 85.8198 134.959 85.7661 134.637C85.7124 134.297 85.6766 133.876 85.6587 133.375C85.6408 132.873 85.6318 132.309 85.6318 131.683C85.6318 131.056 85.6587 130.42 85.7124 129.776C85.7661 129.113 85.8377 128.469 85.9272 127.842C86.0168 127.216 86.1242 126.652 86.2495 126.15L88.4248 126.285C88.8366 127.341 89.3289 128.326 89.9019 129.239C90.4927 130.152 91.1462 130.949 91.8623 131.629C92.5964 132.291 93.3841 132.819 94.2256 133.213C95.0671 133.589 95.9443 133.777 96.8574 133.777C97.6631 133.777 98.424 133.679 99.1401 133.482C99.8742 133.285 100.519 132.99 101.074 132.596C101.629 132.184 102.067 131.674 102.39 131.065C102.712 130.438 102.873 129.695 102.873 128.836C102.873 127.744 102.631 126.804 102.148 126.016C101.665 125.21 101.02 124.503 100.214 123.895C99.4266 123.268 98.5225 122.704 97.502 122.203C96.4814 121.701 95.4341 121.2 94.3599 120.699C93.3035 120.197 92.2651 119.669 91.2446 119.114C90.2241 118.559 89.311 117.924 88.5054 117.208C87.7176 116.473 87.082 115.632 86.5986 114.683C86.1152 113.734 85.8735 112.606 85.8735 111.299C85.8735 110.744 85.981 110.136 86.1958 109.473C86.4285 108.811 86.7687 108.148 87.2163 107.486C87.6818 106.823 88.2637 106.188 88.9619 105.579C89.6602 104.952 90.4837 104.406 91.4326 103.941C92.3815 103.458 93.4647 103.073 94.6821 102.786C95.8996 102.5 97.2513 102.356 98.7373 102.356C99.7578 102.356 100.751 102.419 101.718 102.544C102.685 102.67 103.58 102.84 104.404 103.055C105.245 103.27 105.979 103.529 106.606 103.833C107.25 104.138 107.734 104.469 108.056 104.827C108.146 104.899 108.164 105.078 108.11 105.364C108.074 105.633 107.993 105.955 107.868 106.331C107.743 106.707 107.582 107.119 107.385 107.566C107.206 107.996 107.009 108.417 106.794 108.829C106.597 109.222 106.4 109.581 106.203 109.903C106.006 110.207 105.836 110.422 105.693 110.547L103.652 110.386C103.294 109.473 102.864 108.712 102.363 108.104C101.861 107.477 101.324 106.976 100.751 106.6C100.196 106.224 99.6235 105.964 99.0327 105.821C98.4598 105.66 97.9227 105.579 97.4214 105.579C96.562 105.579 95.828 105.687 95.2192 105.901C94.6105 106.116 94.1092 106.412 93.7153 106.788C93.3215 107.146 93.035 107.566 92.856 108.05C92.6769 108.515 92.5874 108.999 92.5874 109.5C92.5874 110.341 92.8291 111.093 93.3125 111.756C93.8138 112.418 94.4673 113.027 95.2729 113.582C96.0786 114.137 96.9917 114.674 98.0122 115.193L101.154 116.751C102.229 117.288 103.276 117.87 104.296 118.497C105.317 119.123 106.23 119.839 107.036 120.645C107.841 121.433 108.486 122.337 108.969 123.357C109.471 124.378 109.721 125.551 109.721 126.875ZM112.971 137V134.771C114.188 134.52 115.092 134.252 115.683 133.965C116.292 133.661 116.596 133.383 116.596 133.133V107.056C116.596 106.841 116.31 106.573 115.737 106.25C115.182 105.928 114.26 105.642 112.971 105.391V103.162H127.741V105.391C126.524 105.642 125.611 105.919 125.002 106.224C124.411 106.528 124.116 106.806 124.116 107.056V119.168L133.757 107.781C134.169 107.298 134.464 106.913 134.643 106.626C134.84 106.34 134.903 106.116 134.831 105.955C134.759 105.794 134.536 105.678 134.16 105.606C133.802 105.516 133.273 105.445 132.575 105.391V103.162H144.929V105.391C144.356 105.463 143.872 105.534 143.479 105.606C143.103 105.678 142.762 105.776 142.458 105.901C142.172 106.009 141.912 106.161 141.679 106.358C141.446 106.537 141.187 106.77 140.9 107.056L129.46 118.819L142.377 132.247C142.664 132.551 142.95 132.784 143.237 132.945C143.523 133.088 143.828 133.195 144.15 133.267C144.472 133.339 144.821 133.366 145.197 133.348C145.573 133.33 145.994 133.294 146.459 133.24L146.647 135.469C146.128 135.63 145.528 135.827 144.848 136.06C144.168 136.275 143.479 136.481 142.78 136.678C142.1 136.875 141.446 137.036 140.82 137.161C140.193 137.304 139.665 137.376 139.235 137.376C138.716 137.376 138.251 137.295 137.839 137.134C137.445 136.973 137.069 136.669 136.711 136.221L124.116 120.35V133.133C124.116 133.348 124.393 133.616 124.948 133.938C125.503 134.243 126.434 134.52 127.741 134.771V137H112.971ZM171.704 120.108C171.704 118.264 171.489 116.491 171.059 114.791C170.647 113.072 170.048 111.568 169.26 110.279C168.49 108.972 167.559 107.933 166.467 107.164C165.393 106.376 164.193 105.982 162.868 105.982C161.687 105.982 160.639 106.295 159.726 106.922C158.831 107.531 158.079 108.426 157.47 109.607C156.861 110.789 156.405 112.239 156.101 113.958C155.796 115.659 155.644 117.601 155.644 119.786C155.644 121.791 155.868 123.662 156.315 125.398C156.763 127.135 157.372 128.648 158.142 129.937C158.929 131.208 159.842 132.211 160.881 132.945C161.919 133.679 163.029 134.046 164.211 134.046C165.285 134.046 166.279 133.768 167.192 133.213C168.123 132.64 168.92 131.781 169.582 130.635C170.244 129.489 170.764 128.039 171.14 126.285C171.516 124.53 171.704 122.471 171.704 120.108ZM179.357 119.625C179.357 121.254 179.152 122.829 178.74 124.351C178.346 125.873 177.782 127.314 177.048 128.675C176.332 130.018 175.472 131.253 174.47 132.381C173.467 133.491 172.348 134.449 171.113 135.254C169.895 136.06 168.588 136.687 167.192 137.134C165.813 137.582 164.381 137.806 162.895 137.806C160.603 137.806 158.535 137.331 156.691 136.382C154.847 135.433 153.281 134.162 151.992 132.569C150.703 130.975 149.709 129.14 149.011 127.063C148.33 124.987 147.99 122.82 147.99 120.564C147.99 118.13 148.384 115.811 149.172 113.609C149.978 111.407 151.105 109.473 152.556 107.808C154.006 106.143 155.734 104.818 157.739 103.833C159.762 102.849 162 102.356 164.453 102.356C166.87 102.356 169 102.849 170.844 103.833C172.706 104.8 174.264 106.089 175.517 107.701C176.788 109.312 177.746 111.156 178.391 113.233C179.035 115.31 179.357 117.44 179.357 119.625ZM182.365 137V134.771C183.583 134.52 184.487 134.252 185.078 133.965C185.686 133.661 185.991 133.383 185.991 133.133V106.197L182.365 106.707L181.989 103.968C183.941 103.556 186.107 103.189 188.488 102.867C190.869 102.527 193.385 102.356 196.035 102.356C198.577 102.356 200.734 102.562 202.507 102.974C204.279 103.386 205.712 103.959 206.804 104.693C207.914 105.427 208.71 106.295 209.194 107.298C209.695 108.283 209.946 109.348 209.946 110.494C209.946 111.711 209.758 112.839 209.382 113.877C209.024 114.898 208.514 115.829 207.851 116.67C207.207 117.494 206.419 118.228 205.488 118.873C204.575 119.499 203.563 120.009 202.453 120.403L211.047 131.656C211.333 132.032 211.593 132.336 211.826 132.569C212.076 132.802 212.345 132.981 212.631 133.106C212.936 133.213 213.285 133.276 213.679 133.294C214.09 133.312 214.601 133.294 215.209 133.24L215.639 135.469C215.048 135.666 214.35 135.881 213.544 136.114C212.757 136.329 211.969 136.535 211.181 136.731C210.411 136.91 209.686 137.063 209.006 137.188C208.326 137.313 207.815 137.376 207.475 137.376C206.956 137.376 206.446 137.233 205.944 136.946C205.461 136.66 205.094 136.311 204.843 135.899L197.27 121.397C197.127 121.415 196.975 121.424 196.813 121.424H196.357C195.891 121.424 195.426 121.406 194.96 121.37C194.495 121.316 194.012 121.236 193.51 121.128V133.133C193.51 133.348 193.788 133.616 194.343 133.938C194.898 134.243 195.829 134.52 197.136 134.771V137H182.365ZM194.772 105.418C194.576 105.418 194.37 105.427 194.155 105.445C193.958 105.445 193.743 105.445 193.51 105.445V117.906C193.994 117.995 194.414 118.049 194.772 118.067C195.131 118.085 195.507 118.094 195.9 118.094C197.046 118.094 198.022 117.942 198.828 117.637C199.633 117.315 200.287 116.867 200.788 116.294C201.307 115.704 201.683 114.996 201.916 114.173C202.167 113.331 202.292 112.382 202.292 111.326C202.292 110.556 202.185 109.813 201.97 109.097C201.773 108.381 201.388 107.754 200.815 107.217C200.26 106.662 199.49 106.224 198.505 105.901C197.539 105.579 196.294 105.418 194.772 105.418ZM235.351 122.095L231.027 110.064L227.187 122.095H235.351ZM226.032 125.586L223.588 132.945C223.409 133.5 223.615 133.903 224.206 134.153C224.815 134.404 225.853 134.61 227.321 134.771V137H215.397V134.771C216.615 134.556 217.537 134.332 218.164 134.1C218.79 133.867 219.193 133.482 219.372 132.945L228.557 104.854C229.04 104.442 229.568 104.075 230.141 103.753C230.732 103.413 231.332 103.108 231.94 102.84C232.549 102.571 233.149 102.339 233.74 102.142C234.348 101.945 234.921 101.775 235.458 101.631L246.738 132.945C246.827 133.195 246.935 133.419 247.06 133.616C247.203 133.813 247.391 133.983 247.624 134.126C247.875 134.27 248.188 134.395 248.564 134.502C248.94 134.61 249.414 134.699 249.987 134.771V137H235.969V134.771C237.347 134.699 238.278 134.529 238.762 134.261C239.263 133.974 239.415 133.536 239.218 132.945L236.586 125.586H226.032Z" fill="#355070"/>
<path d="M84.6299 161V160.129C85.1058 160.031 85.4592 159.926 85.6902 159.814C85.9281 159.695 86.0471 159.586 86.0471 159.488V149.295C86.0471 149.211 85.9351 149.106 85.7112 148.98C85.4942 148.854 85.1338 148.742 84.6299 148.644V147.772H90.4038V148.644C89.9279 148.742 89.571 148.85 89.333 148.969C89.1021 149.088 88.9866 149.197 88.9866 149.295V159.488C88.9866 159.572 89.0951 159.677 89.312 159.803C89.536 159.922 89.8999 160.031 90.4038 160.129V161H84.6299ZM91.6636 161V160.129C92.1395 160.031 92.4929 159.926 92.7239 159.814C92.9618 159.695 93.0808 159.586 93.0808 159.488V149.295C93.0808 149.211 92.9688 149.106 92.7449 148.98C92.5279 148.854 92.1675 148.742 91.6636 148.644V147.772H97.4375V148.644C96.9616 148.742 96.6047 148.85 96.3667 148.969C96.1357 149.088 96.0203 149.197 96.0203 149.295V154.029L99.7891 149.578C99.95 149.389 100.066 149.239 100.135 149.127C100.212 149.015 100.237 148.927 100.209 148.864C100.181 148.801 100.094 148.756 99.9465 148.728C99.8066 148.693 99.6001 148.665 99.3271 148.644V147.772H104.156V148.644C103.932 148.672 103.743 148.7 103.589 148.728C103.442 148.756 103.309 148.794 103.19 148.843C103.078 148.885 102.977 148.945 102.886 149.022C102.795 149.092 102.694 149.183 102.582 149.295L98.1094 153.893L103.159 159.142C103.271 159.261 103.383 159.352 103.495 159.415C103.607 159.471 103.726 159.513 103.852 159.541C103.978 159.569 104.114 159.579 104.261 159.572C104.408 159.565 104.573 159.551 104.755 159.53L104.828 160.402C104.625 160.465 104.391 160.542 104.125 160.633C103.859 160.717 103.589 160.797 103.316 160.874C103.05 160.951 102.795 161.014 102.55 161.063C102.305 161.119 102.099 161.147 101.931 161.147C101.728 161.147 101.546 161.115 101.385 161.052C101.231 160.99 101.084 160.871 100.944 160.696L96.0203 154.491V159.488C96.0203 159.572 96.1287 159.677 96.3457 159.803C96.5627 159.922 96.9266 160.031 97.4375 160.129V161H91.6636ZM105.248 161V160.129C105.724 160.031 106.077 159.926 106.308 159.814C106.546 159.695 106.665 159.586 106.665 159.488V149.295C106.665 149.211 106.553 149.106 106.329 148.98C106.112 148.854 105.752 148.742 105.248 148.644V147.772H111.022V148.644C110.546 148.742 110.189 148.85 109.951 148.969C109.72 149.088 109.605 149.197 109.605 149.295V154.029L113.374 149.578C113.535 149.389 113.65 149.239 113.72 149.127C113.797 149.015 113.821 148.927 113.793 148.864C113.765 148.801 113.678 148.756 113.531 148.728C113.391 148.693 113.185 148.665 112.912 148.644V147.772H117.741V148.644C117.517 148.672 117.328 148.7 117.174 148.728C117.027 148.756 116.894 148.794 116.775 148.843C116.663 148.885 116.561 148.945 116.47 149.022C116.379 149.092 116.278 149.183 116.166 149.295L111.694 153.893L116.743 159.142C116.855 159.261 116.967 159.352 117.079 159.415C117.191 159.471 117.31 159.513 117.436 159.541C117.562 159.569 117.699 159.579 117.846 159.572C117.993 159.565 118.157 159.551 118.339 159.53L118.413 160.402C118.21 160.465 117.975 160.542 117.709 160.633C117.443 160.717 117.174 160.797 116.901 160.874C116.635 160.951 116.379 161.014 116.135 161.063C115.89 161.119 115.683 161.147 115.515 161.147C115.312 161.147 115.13 161.115 114.969 161.052C114.815 160.99 114.668 160.871 114.528 160.696L109.605 154.491V159.488C109.605 159.572 109.713 159.677 109.93 159.803C110.147 159.922 110.511 160.031 111.022 160.129V161H105.248ZM119.042 161V160.129C119.518 160.031 119.872 159.926 120.103 159.814C120.341 159.695 120.46 159.586 120.46 159.488V149.295C120.46 149.211 120.348 149.106 120.124 148.98C119.907 148.854 119.546 148.742 119.042 148.644V147.772H124.816V148.644C124.34 148.742 123.984 148.85 123.746 148.969C123.515 149.088 123.399 149.197 123.399 149.295V159.488C123.399 159.572 123.508 159.677 123.725 159.803C123.949 159.922 124.312 160.031 124.816 160.129V161H119.042ZM131.64 161V160.129C132.116 160.031 132.469 159.926 132.7 159.814C132.938 159.695 133.057 159.586 133.057 159.488V149.295C133.057 149.211 132.945 149.106 132.721 148.98C132.504 148.854 132.144 148.742 131.64 148.644V147.772H137.414V148.644C136.938 148.742 136.581 148.85 136.343 148.969C136.112 149.088 135.997 149.197 135.997 149.295V154.029L139.766 149.578C139.927 149.389 140.042 149.239 140.112 149.127C140.189 149.015 140.214 148.927 140.186 148.864C140.158 148.801 140.07 148.756 139.923 148.728C139.783 148.693 139.577 148.665 139.304 148.644V147.772H144.133V148.644C143.909 148.672 143.72 148.7 143.566 148.728C143.419 148.756 143.286 148.794 143.167 148.843C143.055 148.885 142.954 148.945 142.863 149.022C142.772 149.092 142.67 149.183 142.558 149.295L138.086 153.893L143.135 159.142C143.247 159.261 143.359 159.352 143.471 159.415C143.583 159.471 143.702 159.513 143.828 159.541C143.954 159.569 144.091 159.579 144.238 159.572C144.385 159.565 144.549 159.551 144.731 159.53L144.805 160.402C144.602 160.465 144.367 160.542 144.101 160.633C143.835 160.717 143.566 160.797 143.293 160.874C143.027 160.951 142.772 161.014 142.527 161.063C142.282 161.119 142.075 161.147 141.907 161.147C141.704 161.147 141.522 161.115 141.361 161.052C141.207 160.99 141.06 160.871 140.92 160.696L135.997 154.491V159.488C135.997 159.572 136.105 159.677 136.322 159.803C136.539 159.922 136.903 160.031 137.414 160.129V161H131.64ZM155.765 157.599C155.737 157.9 155.702 158.229 155.66 158.585C155.625 158.935 155.586 159.275 155.544 159.604C155.509 159.926 155.471 160.213 155.429 160.465C155.394 160.717 155.362 160.895 155.334 161H145.225V160.129C145.701 160.031 146.054 159.926 146.285 159.814C146.523 159.695 146.642 159.586 146.642 159.488V149.295C146.642 149.211 146.53 149.106 146.306 148.98C146.089 148.854 145.729 148.742 145.225 148.644V147.772H150.999V148.644C150.523 148.742 150.166 148.85 149.928 148.969C149.697 149.088 149.581 149.197 149.581 149.295V158.858C149.581 158.984 149.609 159.096 149.665 159.194C149.728 159.285 149.833 159.366 149.98 159.436C150.127 159.499 150.327 159.548 150.579 159.583C150.831 159.618 151.149 159.635 151.534 159.635H152.615C152.937 159.635 153.207 159.593 153.424 159.509C153.648 159.418 153.844 159.278 154.011 159.089C154.179 158.9 154.33 158.659 154.463 158.365C154.603 158.071 154.746 157.718 154.893 157.305L155.765 157.599ZM163.796 155.174L162.105 150.47L160.604 155.174H163.796ZM160.153 156.538L159.198 159.415C159.128 159.632 159.208 159.789 159.439 159.887C159.677 159.985 160.083 160.066 160.657 160.129V161H155.996V160.129C156.472 160.045 156.832 159.957 157.077 159.866C157.322 159.775 157.479 159.625 157.549 159.415L161.14 148.434C161.329 148.273 161.535 148.129 161.759 148.003C161.99 147.87 162.224 147.751 162.462 147.646C162.7 147.542 162.935 147.451 163.166 147.374C163.404 147.297 163.628 147.23 163.838 147.174L168.247 159.415C168.282 159.513 168.324 159.6 168.373 159.677C168.429 159.754 168.502 159.821 168.593 159.877C168.691 159.933 168.814 159.982 168.961 160.024C169.108 160.066 169.293 160.101 169.517 160.129V161H164.037V160.129C164.576 160.101 164.94 160.034 165.129 159.929C165.325 159.817 165.384 159.646 165.307 159.415L164.279 156.538H160.153ZM170.168 161V160.129C170.679 160.066 171.043 159.968 171.26 159.835C171.477 159.702 171.585 159.586 171.585 159.488V149.431C171.361 149.221 171.127 149.046 170.882 148.906C170.644 148.766 170.406 148.679 170.168 148.644V147.772H173.338C173.443 147.772 173.527 147.783 173.59 147.804C173.66 147.818 173.73 147.853 173.8 147.909C173.87 147.965 173.944 148.049 174.021 148.161C174.105 148.266 174.213 148.409 174.346 148.591L180.614 157.294V149.295C180.614 149.253 180.593 149.204 180.551 149.148C180.509 149.085 180.432 149.025 180.32 148.969C180.215 148.906 180.071 148.847 179.889 148.791C179.707 148.735 179.476 148.686 179.196 148.644V147.772H183.71V148.644C183.207 148.714 182.843 148.815 182.619 148.948C182.402 149.081 182.293 149.197 182.293 149.295V161.315C181.908 161.287 181.558 161.231 181.243 161.147C180.935 161.07 180.659 160.976 180.414 160.864C180.176 160.752 179.97 160.626 179.795 160.486C179.62 160.346 179.476 160.199 179.364 160.045L173.265 151.604V159.488C173.265 159.53 173.286 159.583 173.328 159.646C173.377 159.702 173.457 159.761 173.569 159.824C173.681 159.88 173.825 159.936 174 159.992C174.182 160.048 174.409 160.094 174.682 160.129V161H170.168ZM197.284 153.903C197.284 154.778 197.193 155.562 197.011 156.255C196.837 156.941 196.592 157.55 196.277 158.082C195.969 158.606 195.605 159.054 195.185 159.425C194.772 159.789 194.324 160.09 193.841 160.328C193.365 160.559 192.868 160.731 192.35 160.843C191.839 160.948 191.336 161 190.839 161H184.55V160.129C185.026 160.031 185.38 159.926 185.611 159.814C185.849 159.695 185.968 159.586 185.968 159.488V148.959L184.55 149.158L184.403 148.087C184.76 148.003 185.187 147.923 185.684 147.846C186.181 147.769 186.699 147.702 187.238 147.646C187.784 147.583 188.33 147.538 188.875 147.51C189.428 147.475 189.939 147.458 190.408 147.458C191.514 147.458 192.494 147.604 193.348 147.898C194.201 148.185 194.919 148.605 195.5 149.158C196.088 149.711 196.532 150.386 196.833 151.184C197.134 151.982 197.284 152.889 197.284 153.903ZM189.621 148.654C189.509 148.654 189.39 148.658 189.264 148.665C189.145 148.665 189.026 148.668 188.907 148.675V159.005C188.907 159.124 188.914 159.233 188.928 159.331C188.942 159.429 188.994 159.513 189.085 159.583C189.183 159.653 189.334 159.709 189.537 159.751C189.74 159.786 190.027 159.803 190.398 159.803C190.776 159.803 191.182 159.702 191.615 159.499C192.056 159.296 192.462 158.974 192.833 158.533C193.204 158.092 193.512 157.525 193.757 156.832C194.009 156.139 194.135 155.3 194.135 154.313C194.135 152.444 193.754 151.034 192.991 150.082C192.228 149.13 191.105 148.654 189.621 148.654ZM198.555 161V160.129C199.031 160.031 199.384 159.926 199.615 159.814C199.853 159.695 199.972 159.586 199.972 159.488V148.959L198.555 149.158L198.408 148.087C199.171 147.926 200.017 147.783 200.948 147.657C201.879 147.524 202.862 147.458 203.898 147.458C204.892 147.458 205.735 147.538 206.428 147.699C207.121 147.86 207.681 148.084 208.108 148.371C208.542 148.658 208.853 148.997 209.042 149.389C209.238 149.774 209.336 150.191 209.336 150.638C209.336 151.114 209.263 151.555 209.116 151.961C208.976 152.36 208.776 152.724 208.517 153.053C208.265 153.375 207.957 153.662 207.594 153.914C207.237 154.159 206.841 154.358 206.407 154.512L209.767 158.911C209.879 159.058 209.98 159.177 210.071 159.268C210.169 159.359 210.274 159.429 210.386 159.478C210.505 159.52 210.641 159.544 210.795 159.551C210.956 159.558 211.156 159.551 211.394 159.53L211.562 160.402C211.331 160.479 211.058 160.563 210.743 160.654C210.435 160.738 210.127 160.818 209.819 160.895C209.518 160.965 209.235 161.024 208.969 161.073C208.703 161.122 208.503 161.147 208.37 161.147C208.167 161.147 207.968 161.091 207.772 160.979C207.583 160.867 207.44 160.731 207.342 160.57L204.381 154.901C204.325 154.908 204.266 154.911 204.203 154.911H204.024C203.842 154.911 203.66 154.904 203.478 154.89C203.296 154.869 203.107 154.838 202.911 154.796V159.488C202.911 159.572 203.02 159.677 203.237 159.803C203.454 159.922 203.818 160.031 204.329 160.129V161H198.555ZM203.405 148.654C203.328 148.654 203.247 148.658 203.163 148.665C203.086 148.665 203.002 148.665 202.911 148.665V153.536C203.1 153.571 203.265 153.592 203.405 153.599C203.545 153.606 203.692 153.609 203.846 153.609C204.294 153.609 204.675 153.55 204.99 153.431C205.305 153.305 205.56 153.13 205.756 152.906C205.959 152.675 206.106 152.399 206.197 152.077C206.295 151.748 206.344 151.377 206.344 150.964C206.344 150.663 206.302 150.372 206.218 150.093C206.141 149.813 205.991 149.568 205.767 149.358C205.55 149.141 205.249 148.969 204.864 148.843C204.486 148.717 204 148.654 203.405 148.654ZM219.267 155.174L217.577 150.47L216.076 155.174H219.267ZM215.625 156.538L214.669 159.415C214.599 159.632 214.68 159.789 214.911 159.887C215.149 159.985 215.555 160.066 216.128 160.129V161H211.467V160.129C211.943 160.045 212.304 159.957 212.549 159.866C212.794 159.775 212.951 159.625 213.021 159.415L216.611 148.434C216.8 148.273 217.007 148.129 217.231 148.003C217.462 147.87 217.696 147.751 217.934 147.646C218.172 147.542 218.406 147.451 218.637 147.374C218.875 147.297 219.099 147.23 219.309 147.174L223.719 159.415C223.753 159.513 223.795 159.6 223.844 159.677C223.9 159.754 223.974 159.821 224.065 159.877C224.163 159.933 224.285 159.982 224.432 160.024C224.579 160.066 224.765 160.101 224.989 160.129V161H219.509V160.129C220.048 160.101 220.412 160.034 220.601 159.929C220.797 159.817 220.856 159.646 220.779 159.415L219.75 156.538H215.625ZM235.665 157.042C235.665 157.357 235.616 157.679 235.518 158.008C235.42 158.337 235.273 158.662 235.077 158.984C234.888 159.299 234.643 159.6 234.343 159.887C234.049 160.167 233.699 160.412 233.293 160.622C232.894 160.832 232.442 161 231.938 161.126C231.435 161.252 230.875 161.315 230.259 161.315C230 161.315 229.699 161.29 229.356 161.241C229.013 161.192 228.663 161.122 228.306 161.031C227.949 160.948 227.599 160.843 227.256 160.717C226.92 160.591 226.63 160.447 226.385 160.286C226.35 160.272 226.322 160.202 226.301 160.076C226.28 159.943 226.266 159.779 226.259 159.583C226.252 159.387 226.249 159.166 226.249 158.921C226.249 158.676 226.259 158.428 226.28 158.176C226.301 157.917 226.329 157.665 226.364 157.42C226.399 157.175 226.441 156.955 226.49 156.759L227.34 156.811C227.501 157.224 227.694 157.609 227.918 157.966C228.149 158.323 228.404 158.634 228.684 158.9C228.971 159.159 229.279 159.366 229.608 159.52C229.937 159.667 230.28 159.74 230.637 159.74C230.952 159.74 231.249 159.702 231.529 159.625C231.816 159.548 232.068 159.432 232.285 159.278C232.502 159.117 232.673 158.918 232.799 158.68C232.925 158.435 232.988 158.145 232.988 157.809C232.988 157.382 232.894 157.014 232.705 156.706C232.516 156.391 232.264 156.115 231.949 155.877C231.641 155.632 231.288 155.412 230.889 155.216C230.49 155.02 230.08 154.824 229.66 154.628C229.247 154.432 228.842 154.225 228.443 154.008C228.044 153.791 227.687 153.543 227.372 153.263C227.064 152.976 226.815 152.647 226.626 152.276C226.438 151.905 226.343 151.464 226.343 150.953C226.343 150.736 226.385 150.498 226.469 150.24C226.56 149.981 226.693 149.722 226.868 149.463C227.05 149.204 227.277 148.955 227.55 148.717C227.823 148.472 228.145 148.259 228.516 148.077C228.887 147.888 229.31 147.737 229.786 147.625C230.262 147.514 230.791 147.458 231.372 147.458C231.771 147.458 232.159 147.482 232.537 147.531C232.915 147.58 233.265 147.646 233.587 147.73C233.916 147.814 234.203 147.916 234.448 148.035C234.699 148.154 234.888 148.283 235.014 148.423C235.049 148.451 235.056 148.521 235.035 148.633C235.021 148.738 234.99 148.864 234.941 149.011C234.892 149.158 234.829 149.319 234.752 149.494C234.682 149.662 234.605 149.827 234.521 149.988C234.444 150.142 234.367 150.281 234.29 150.407C234.213 150.526 234.147 150.61 234.091 150.659L233.293 150.596C233.153 150.24 232.985 149.942 232.789 149.704C232.593 149.459 232.383 149.263 232.159 149.116C231.942 148.969 231.718 148.868 231.487 148.812C231.263 148.749 231.053 148.717 230.857 148.717C230.521 148.717 230.234 148.759 229.996 148.843C229.758 148.927 229.562 149.043 229.408 149.19C229.254 149.33 229.142 149.494 229.073 149.683C229.003 149.865 228.968 150.054 228.968 150.25C228.968 150.579 229.062 150.873 229.251 151.132C229.447 151.391 229.702 151.629 230.017 151.846C230.332 152.063 230.689 152.273 231.088 152.476L232.316 153.084C232.736 153.294 233.146 153.522 233.545 153.767C233.944 154.012 234.301 154.292 234.615 154.607C234.93 154.915 235.182 155.268 235.371 155.667C235.567 156.066 235.665 156.524 235.665 157.042ZM239.634 161V160.129C239.955 160.066 240.221 159.999 240.431 159.929C240.641 159.859 240.806 159.793 240.925 159.73C241.044 159.66 241.128 159.597 241.177 159.541C241.226 159.478 241.25 159.422 241.25 159.373V149.137H238.741C238.636 149.137 238.535 149.183 238.437 149.274C238.339 149.358 238.237 149.494 238.132 149.683C238.034 149.865 237.922 150.103 237.796 150.397C237.677 150.691 237.541 151.041 237.387 151.447L236.516 151.142C236.53 150.939 236.554 150.684 236.589 150.376C236.624 150.068 236.663 149.753 236.705 149.431C236.754 149.102 236.799 148.791 236.841 148.497C236.89 148.196 236.932 147.954 236.967 147.772H248.41L248.83 148.14C248.823 148.322 248.805 148.549 248.777 148.822C248.749 149.095 248.714 149.382 248.672 149.683C248.63 149.977 248.585 150.274 248.536 150.575C248.494 150.869 248.452 151.125 248.41 151.342H247.518C247.448 151.02 247.392 150.722 247.35 150.449C247.308 150.177 247.259 149.946 247.203 149.757C247.147 149.561 247.077 149.41 246.993 149.305C246.909 149.193 246.793 149.137 246.646 149.137H244.19V159.373C244.19 159.415 244.214 159.467 244.263 159.53C244.312 159.586 244.396 159.649 244.515 159.719C244.634 159.789 244.799 159.859 245.009 159.929C245.219 159.999 245.484 160.066 245.806 160.129V161H239.634Z" fill="#355070" fill-opacity="0.5"/>
</svg>
